<svg viewBox="0 0 512 512" xmlns="http://www.w3.org/2000/svg" fill-rule="evenodd" clip-rule="evenodd" stroke-linejoin="round" stroke-miterlimit="2"><g transform="translate(-15.62 -15.23) scale(1.04566)"><circle cx="259.76" cy="259.38" r="239.08" fill="#e3f2fd"/><path d="M259.76 20.3c131.95 0 239.08 107.13 239.08 239.08S391.71 498.47 259.76 498.47 20.68 391.34 20.68 259.38 127.8 20.3 259.75 20.3zm0 47.82c105.56 0 191.27 85.7 191.27 191.26s-85.7 191.27-191.27 191.27-191.27-85.7-191.27-191.27S154.2 68.12 259.76 68.12z" fill="#3f51b5"/></g><path d="m350.1 371.4-5.63 3.29-16.25 9.9-9.6 6.97c-7.12 3.4-14.56 6.1-22.25 8.38v-9.44l-2.72-21.72s-1.34-12.53-3.37-15.81c-2.03-3.31-6.78-7.94-11.53-9.9-4.75-1.98-8.13-1.98-10.85-5.26-2.71-3.3-4.75-9.25-8.12-14.5-3.4-5.28-7.47-10.56-7.47-13.19v-29.65l3.4-25.03 7.44-5.28 8.82-9.88 6.1-1.97 21 3.94h14.9l6.12 12.53 14.22 11.19 8.81 13.84 11.5 3.94h12.88l8.81 10.56 5.44 11.2 2.03 7.9v13.19l-1.4 7.78a147.4 147.4 0 0 1-32.29 37.03zm-52.38-227.34-14.9 7.9-5.41 15.16-8.82 7.91h-29.15l-13.53 5.28-.69 10.53-5.4 8.56-1.38 9.25 2.72 7.91 3.37 7.9s8.16 9.23 0 15.82c0 0-10.15 0-12.19-3.31-2.03-3.28-16.93-12.5-19.65-15.16-2.69-2.62-11.5-5.25-11.5-5.25l-10.85-3.97-10.15-.65.65-13.85-.65-11.84-4.1-8.56-11.5-8.6-.68-9.22 1.4-5.12c27.44-26.53 65.25-42.97 107-42.97 23.56 0 45.6 5.65 65.5 14.97l-.44 3.47-19.65 13.84z" fill="#3f51b5" fill-rule="nonzero"/></svg>
